<?xml version="1.0" encoding="iso-8859-1"?><!-- Generator: Adobe Illustrator 22.1.0, SVG Export Plug-In . SVG Version: 6.00 Build 0)  --><svg xmlns="http://www.w3.org/2000/svg" xmlns:xlink="http://www.w3.org/1999/xlink" viewBox="0 0 50 50" width="50px" height="50px"><path style="fill:none;stroke:#000000;stroke-width:2;stroke-linecap:round;stroke-linejoin:round;stroke-miterlimit:10;" d="M1,20h11.5c1.381,0,2.5,1.119,2.5,2.5v0c0,1.381-1.119,2.5-2.5,2.5H3c-1.105,0-2,0.895-2,2v3"/><path style="fill:none;stroke:#000000;stroke-width:2;stroke-linecap:round;stroke-linejoin:round;stroke-miterlimit:10;" d="M16,30h6c1.105,0,2-0.895,2-2v-6c0-1.105,0.895-2,2-2h6"/><path style="fill:none;stroke:#000000;stroke-width:2;stroke-linecap:round;stroke-linejoin:round;stroke-miterlimit:10;" d="M46.5,25c1.381,0,2.5-1.119,2.5-2.5S47.881,20,46.5,20H36"/><path style="fill:none;stroke:#000000;stroke-width:2;stroke-linecap:round;stroke-linejoin:round;stroke-miterlimit:10;" d="M36,25h10.5c1.381,0,2.5,1.119,2.5,2.5S47.881,30,46.5,30H36"/></svg>